{"title":"The Final Destination 4 (2009) TS XviD-MAX","uid":5074197,"size":755619913,"categoryP":"video","categoryS":"movies","magnet":"?xt=urn:btih:98b8717a6f4a4c32d1fd985667ac132e240d169e&amp;dn=The+Final+Destination+4+%282009%29+TS+XviD-MAX&amp;tr=udp%3A%2F%2Ftracker.openbittorrent.com%3A80&amp;tr=udp%3A%2F%2Fopen.demonii.com%3A1337&amp;tr=udp%3A%2F%2Ftracker.coppersurfer.tk%3A6969&amp;tr=udp%3A%2F%2Fexodus.desync.com%3A6969","seeders":3,"leechers":2,"uploader":"extremezone","files":-1,"time":1251671196,"description":"The Final Destination 4 (2009) DVDRip XviD-MAX (BEST QUALITY) &lt;a href=&quot;\nhttp://torrents.thepiratebay.se/5184750/The_Final_Destination_4_(2009)_DVDRip_XviD-MAX.5184750.TPB.torrent&quot; rel=&quot;nofollow&quot; target=&quot;_NEW&quot;&gt;\nhttp://torrents.thepiratebay.se/5184750/The_Final_Destination_4_(2009)_DVDRip_XviD-MAX.5184750.TPB.torrent&lt;/a&gt;\n\nThe Final Destination 4 (2009) TS XviD-MAX\n\n\nFormat                           : AVI\nFormat/Info                      : Audio Video Interleave\nFile size                        : 720 MiB\nDuration                         : 2h 32mn\nOverall bit rate                 : 661 Kbps\nWriting application              : Lavf52.13.0\nOriginal source form             : MAX TORRENTZ\nCopyright                        : SIGISMUNT\n\nVideo\nFormat                           : xvid\nCodec ID                         : xvid\nDuration                         : 1h 16mn\nBit rate                         : 1 150 Kbps\nWidth                            : 640 pixels\nHeight                           : 480 pixels\nDisplay aspect ratio             : 4/3\nFrame rate                       : 25.000 fps\nResolution                       : 24 bits\nBits/(Pixel*Frame)               : 0.150\nStream size                      : 626 MiB (87%)\n\nAudio\nFormat                           : MPEG Audio\nFormat version                   : Version 2\nFormat profile                   : Layer 3\nCodec ID                         : 55\nCodec ID/Hint                    : MP3\nDuration                         : 2h 32mn\nBit rate mode                    : Constant\nBit rate                         : 160 Kbps\nChannel(s)                       : 2 channels\nSampling rate                    : 22.05 KHz\nResolution                       : 16 bits\nStream size                      : 87.2 MiB (12%)\nAlignment                        : Aligned on interleaves\nInterleave, duration             : 26 ms (0.65 video frame)\nWriting library                  : LAME3.98 (beta)\n\n\nScreenCaps: &lt;a href=&quot;\nhttp://www.postimg.com/image/7000/6392.jpg&quot; rel=&quot;nofollow&quot; target=&quot;_NEW&quot;&gt;\nhttp://www.postimg.com/image/7000/6392.jpg&lt;/a&gt;\n\n\n","torrent":{"xt":"urn:btih:98b8717a6f4a4c32d1fd985667ac132e240d169e","amp;dn":"The+Final+Destination+4+%282009%29+TS+XviD-MAX","amp;tr":["udp%3A%2F%2Ftracker.openbittorrent.com%3A80","udp%3A%2F%2Fopen.demonii.com%3A1337","udp%3A%2F%2Ftracker.coppersurfer.tk%3A6969","udp%3A%2F%2Fexodus.desync.com%3A6969"],"infoHash":"98b8717a6f4a4c32d1fd985667ac132e240d169e","infoHashBuffer":{"type":"Buffer","data":[152,184,113,122,111,74,76,50,209,253,152,86,103,172,19,46,36,13,22,158]},"announce":[],"urlList":[]}}